<svg xmlns="http://www.w3.org/2000/svg" width="2048" height="2048" viewBox="0 0 2048 2048" version="1.1"><path d="M 1020.854 93.226 C 812.041 327.600, 687.558 563.189, 651.100 793 C 647.569 815.259, 643.839 847.240, 644.681 848.048 C 645.131 848.480, 653.150 850.457, 662.500 852.440 C 742.009 869.307, 821.414 908.898, 890 965.870 C 906.482 979.561, 946.449 1019.858, 961.446 1037.905 C 990.328 1072.664, 1016.196 1110.768, 1039.288 1152.573 C 1082.006 1229.905, 1101.076 1339.383, 1089.443 1440.500 C 1079.866 1523.750, 1050.370 1606.925, 1005.326 1677.703 L 996.923 1690.906 1005.197 1698.703 C 1106.480 1794.154, 1232.873 1882.471, 1315.964 1915.852 L 1323.428 1918.851 1332.964 1912.253 C 1378.012 1881.087, 1424.193 1845.684, 1462.508 1812.943 C 1632.049 1668.064, 1728.176 1514.992, 1751.437 1352.853 C 1756.015 1320.938, 1757.167 1303.010, 1757.945 1251.500 L 1758.686 1202.500 1754.887 1180 C 1723.897 996.458, 1647.944 831.264, 1514.192 656.500 C 1464.607 591.710, 1421.453 541.120, 1306.017 412.454 C 1170.202 261.074, 1110.088 187.123, 1051.216 99 C 1043.316 87.175, 1036.515 77.377, 1036.103 77.226 C 1035.691 77.075, 1028.829 84.275, 1020.854 93.226" stroke="none" fill="#dc6444" fill-rule="evenodd"/><path d="M 460.500 836.044 C 422.797 838.412, 348.452 847.947, 345.940 850.736 C 344.291 852.567, 329.607 906.454, 322.434 937 C 290.260 1074.010, 281.554 1197.147, 296.028 1310.500 C 322.352 1516.659, 425.172 1687.151, 604.500 1821.992 C 630.621 1841.633, 655.724 1858.893, 682.782 1875.817 C 702.490 1888.143, 738.397 1909.143, 748.083 1914.007 C 750.512 1915.227, 753.400 1917.012, 754.500 1917.974 C 757.723 1920.790, 798.425 1933.087, 833.856 1941.948 C 921.974 1963.986, 1007.832 1973.689, 1090.446 1970.946 C 1162.197 1968.564, 1224.027 1957.281, 1275 1937.268 C 1286.241 1932.854, 1307.110 1922.914, 1313.914 1918.732 L 1317.328 1916.634 1314.414 1915.343 C 1270.499 1895.887, 1238.504 1877.989, 1189.500 1845.463 C 1124.808 1802.526, 1063.889 1754.016, 1005.197 1698.703 L 996.923 1690.906 1005.326 1677.703 C 1050.370 1606.925, 1079.866 1523.750, 1089.443 1440.500 C 1101.076 1339.383, 1082.006 1229.905, 1039.288 1152.573 C 1016.196 1110.768, 990.328 1072.664, 961.446 1037.905 C 946.449 1019.858, 906.482 979.561, 890 965.870 C 822.038 909.417, 744.327 870.439, 664.696 852.864 C 624.158 843.917, 603.644 840.577, 570 837.447 C 549.517 835.541, 482.230 834.679, 460.500 836.044" stroke="none" fill="#fbcb76" fill-rule="evenodd"/></svg>