<svg xmlns="http://www.w3.org/2000/svg" width="300" height="300" viewBox="0 0 300 300" version="1.1"><path d="M 81.893 101.374 C 74.459 103.999, 68.261 107.987, 62.801 113.658 C 60.567 115.978, 50.401 133.340, 37.130 157.500 L 15.159 197.500 39.275 197.768 C 57.749 197.974, 63.668 197.740, 64.572 196.768 C 65.836 195.411, 118 100.501, 118 99.560 C 118 99.252, 111.362 99.009, 103.250 99.021 C 90.388 99.039, 87.654 99.341, 81.893 101.374 M 125.623 103.250 C 121.206 110.875, 74 197.153, 74 197.600 C 74 197.839, 85.065 197.915, 98.588 197.767 L 123.176 197.500 145.153 157.500 C 157.240 135.500, 169.381 113.338, 172.133 108.250 L 177.137 99 152.610 99 L 128.084 99 125.623 103.250 M 160.486 146.250 C 146.255 172.238, 133.946 194.552, 133.133 195.837 L 131.656 198.174 148.578 197.837 L 165.500 197.500 173.308 193.772 C 187.111 187.181, 189.403 184.097, 213.750 139.358 C 225.438 117.881, 235 100.015, 235 99.655 C 235 99.295, 224.056 99, 210.681 99 L 186.362 99 160.486 146.250 M 254.444 101.310 C 248.752 104.032, 242.627 110.569, 240.919 115.744 C 238.962 121.674, 240.159 131.105, 243.567 136.618 C 249.566 146.320, 262.704 150.676, 273.516 146.547 C 278.950 144.472, 286.159 136.751, 287.811 131.236 C 290.402 122.590, 288.212 113.017, 282.191 106.658 C 275.323 99.407, 263.278 97.085, 254.444 101.310" stroke="none" fill="#0d1414" fill-rule="evenodd"/><path d="M 131.500 0.614 C 96.582 5.712, 68.249 19.748, 43.955 43.983 C 22.662 65.224, 9.514 89.243, 2.824 119.119 C 0.805 128.137, 0.500 132.191, 0.500 150 C 0.500 167.809, 0.805 171.863, 2.824 180.881 C 9.521 210.790, 22.718 234.911, 43.929 256.009 C 65.591 277.554, 89.189 290.474, 119.119 297.176 C 128.137 299.195, 132.191 299.500, 150 299.500 C 172.671 299.500, 182.293 298.017, 199.881 291.810 C 236.082 279.034, 267.125 251.600, 284.476 217.047 C 291.719 202.624, 299 178.575, 299 169.076 C 299 167.449, 299.450 165.840, 300 165.500 C 300.599 165.130, 301 158.470, 301 148.882 C 301 138.470, 300.651 133.098, 300 133.500 C 299.416 133.861, 299 132.838, 299 131.042 C 299 126.197, 295.100 109.443, 291.788 100.057 C 284.283 78.791, 272.565 60.398, 256.071 43.991 C 234.813 22.848, 212.224 10.275, 183 3.323 C 174.137 1.215, 169.539 0.775, 153.500 0.500 C 143.050 0.322, 133.150 0.373, 131.500 0.614 M 81.893 101.374 C 74.459 103.999, 68.261 107.987, 62.801 113.658 C 60.567 115.978, 50.401 133.340, 37.130 157.500 L 15.159 197.500 39.275 197.768 C 57.749 197.974, 63.668 197.740, 64.572 196.768 C 65.836 195.411, 118 100.501, 118 99.560 C 118 99.252, 111.362 99.009, 103.250 99.021 C 90.388 99.039, 87.654 99.341, 81.893 101.374 M 125.623 103.250 C 121.206 110.875, 74 197.153, 74 197.600 C 74 197.839, 85.065 197.915, 98.588 197.767 L 123.176 197.500 145.153 157.500 C 157.240 135.500, 169.381 113.338, 172.133 108.250 L 177.137 99 152.610 99 L 128.084 99 125.623 103.250 M 160.486 146.250 C 146.255 172.238, 133.946 194.552, 133.133 195.837 L 131.656 198.174 148.578 197.837 L 165.500 197.500 173.308 193.772 C 187.111 187.181, 189.403 184.097, 213.750 139.358 C 225.438 117.881, 235 100.015, 235 99.655 C 235 99.295, 224.056 99, 210.681 99 L 186.362 99 160.486 146.250 M 254.444 101.310 C 248.752 104.032, 242.627 110.569, 240.919 115.744 C 238.962 121.674, 240.159 131.105, 243.567 136.618 C 249.566 146.320, 262.704 150.676, 273.516 146.547 C 278.950 144.472, 286.159 136.751, 287.811 131.236 C 290.402 122.590, 288.212 113.017, 282.191 106.658 C 275.323 99.407, 263.278 97.085, 254.444 101.310 M 0.407 150 C 0.407 159.075, 0.559 162.787, 0.744 158.250 C 0.929 153.713, 0.929 146.287, 0.744 141.750 C 0.559 137.213, 0.407 140.925, 0.407 150" stroke="none" fill="#fbeb0c" fill-rule="evenodd"/></svg>