<?xml version="1.0" standalone="no"?>
<!DOCTYPE svg PUBLIC "-//W3C//DTD SVG 20010904//EN"
 "http://www.w3.org/TR/2001/REC-SVG-20010904/DTD/svg10.dtd">
<svg version="1.0" xmlns="http://www.w3.org/2000/svg"
 width="300.000000pt" height="180.000000pt" viewBox="0 0 300.000000 180.000000"
 preserveAspectRatio="xMidYMid meet">
<metadata>
Created by potrace 1.10, written by Peter Selinger 2001-2011
</metadata>
<g transform="translate(0.000000,180.000000) scale(0.100000,-0.100000)"
fill="#000000" stroke="none">
<path d="M1562 1353 c-39 -22 -42 -27 -29 -42 15 -17 237 -575 237 -596 0 -7
-9 -24 -21 -39 l-20 -26 95 0 95 0 -22 33 c-12 18 -80 182 -152 365 -71 183
-132 332 -135 331 -3 -1 -24 -12 -48 -26z"/>
<path d="M1405 1124 c-16 -13 -36 -24 -42 -24 -17 0 -16 -6 1 -33 29 -44 226
-561 226 -593 0 -23 -7 -38 -22 -48 -21 -15 -15 -16 81 -16 98 0 103 1 89 18
-26 29 -50 86 -173 402 -65 168 -121 308 -124 312 -3 3 -19 -4 -36 -18z"/>
<path d="M1345 770 c-11 -25 -37 -62 -57 -82 l-38 -38 93 0 c74 1 88 3 72 12
-30 17 -39 37 -45 98 l-5 55 -20 -45z"/>
<path d="M1162 512 c-12 -22 -38 -54 -57 -71 l-36 -31 103 0 c95 1 101 2 72
14 -31 14 -51 48 -56 100 l-3 29 -23 -41z"/>
</g>
</svg>
