<svg xmlns="http://www.w3.org/2000/svg" width="1206" height="1464" viewBox="0 0 1206 1464" version="1.1"><path d="" stroke="none" fill="#183c54" fill-rule="evenodd"/><path d="M 611.531 1.113 C 599.290 2.896, 586.435 8.254, 577 15.506 C 565.900 24.037, 559.560 32.254, 541.750 61.189 C 534.875 72.360, 494.838 137.525, 452.781 206 C 410.724 274.475, 320.291 421.625, 251.819 533 C 30.793 892.517, 10.705 925.356, 7.445 932.484 C 2.222 943.902, 0.592 951.875, 0.592 966 C 0.592 974.835, 1.124 980.553, 2.406 985.500 C 6.406 1000.931, -6.081 980.910, 193.243 1291.500 C 288.585 1440.063, 285.352 1435.293, 297.301 1445.058 C 309.432 1454.971, 327.433 1461.989, 344.500 1463.456 C 357.053 1464.536, 367.121 1462.698, 395.979 1454.059 C 410.565 1449.692, 535.225 1412.597, 673 1371.626 C 1169.330 1224.028, 1151.991 1229.242, 1160.500 1225.023 C 1194.427 1208.199, 1213.543 1164.035, 1202.711 1127.500 C 1201.263 1122.615, 1130.031 969.573, 1019.792 734.500 C 768.422 198.477, 700.504 53.900, 695.181 43.500 C 691.512 36.334, 688.733 32.646, 681.537 25.399 C 671.197 14.985, 662.348 9.314, 649.757 5.032 C 636.281 0.448, 624.435 -0.766, 611.531 1.113 M 643.500 184.165 C 638.927 185.873, 635.129 188.851, 633.496 192.008 C 632.685 193.576, 622.994 238.203, 611.960 291.179 C 565.989 511.899, 524.559 711.853, 445.413 1095 C 421.497 1210.775, 400.778 1310.653, 399.369 1316.952 C 396.601 1329.335, 396.707 1333.545, 399.946 1339.895 C 404.664 1349.142, 414.394 1354.974, 425.128 1354.990 C 428.773 1354.996, 433.273 1354.368, 435.128 1353.596 C 436.983 1352.825, 487.325 1337.713, 547 1320.016 C 998.889 1186.002, 1089.485 1158.737, 1094.464 1155.258 C 1099.295 1151.881, 1104.551 1144.383, 1106.088 1138.673 C 1107.949 1131.760, 1106.793 1123.404, 1102.812 1115 C 1100.858 1110.875, 1088.003 1083.200, 1074.247 1053.500 C 1034.238 967.123, 985.541 862.831, 897.747 675.500 C 802.629 472.544, 733.410 324.295, 695.952 243.312 C 674.603 197.156, 669.018 185.888, 667 184.902 C 663.651 183.267, 647.280 182.753, 643.500 184.165" stroke="none" fill="#143c54" fill-rule="evenodd"/></svg>