<svg xmlns="http://www.w3.org/2000/svg" width="1280" height="533" viewBox="0 0 1280 533" version="1.1"><path d="" stroke="none" fill="#685cfc" fill-rule="evenodd"/><path d="M 646.500 9.331 L 603.500 18.500 603.238 55.362 C 603.029 84.703, 603.233 92.132, 604.238 91.775 C 604.932 91.528, 625.188 87.108, 649.250 81.952 L 693 72.578 693 36.289 C 693 2.364, 692.886 0.005, 691.250 0.081 C 690.288 0.125, 670.150 4.288, 646.500 9.331 M 285.228 50.327 L 242.956 59.426 243.235 210.463 L 243.514 361.500 245.828 369.470 C 250.885 386.885, 258.531 399.551, 271.316 411.695 C 280.585 420.500, 291.095 426.784, 303.344 430.846 C 316.954 435.359, 325.033 436.327, 344 435.715 C 364.694 435.048, 375.684 433.097, 391.250 427.327 L 398 424.825 398 388.413 C 398 368.386, 397.877 352, 397.727 352 C 397.577 352, 392.964 353.164, 387.477 354.588 C 373.884 358.114, 359.157 358.283, 350.619 355.012 C 339.618 350.797, 333.128 342.173, 331.044 329 C 330.418 325.048, 330.012 297.520, 330.008 258.763 L 330 195.027 363.750 194.763 L 397.500 194.500 397.762 156.250 L 398.024 118 363.917 118 L 329.811 118 330.545 79.500 C 331.258 42.132, 331.224 41.003, 329.390 41.114 C 328.350 41.176, 308.478 45.322, 285.228 50.327 M 102.500 112.593 C 87.003 114.817, 77.977 116.703, 69.424 119.503 C 33.986 131.107, 11.691 153.383, 2.872 186.001 C 0.895 193.310, 0.568 196.950, 0.537 212 C 0.504 227.628, 0.751 230.298, 2.844 236.965 C 9.412 257.883, 21.080 271.858, 42.500 284.465 C 53.772 291.099, 60.645 294.093, 90 305.159 C 115.589 314.806, 125.602 320.117, 130.611 326.702 C 138.726 337.369, 134.392 350.919, 121.190 356.160 C 116.174 358.152, 113.724 358.419, 100.500 358.421 C 83.583 358.423, 74.053 356.984, 55.357 351.603 C 41.305 347.558, 26.251 341.739, 13.595 335.459 C 8.652 333.007, 4.471 331, 4.304 331 C 4.137 331, 4 350.109, 4 373.465 C 4 413.296, 4.111 415.989, 5.796 416.891 C 9.155 418.688, 31.465 426.107, 41 428.598 C 65.464 434.986, 99.362 437.643, 123.172 435.036 C 168.367 430.090, 201.772 409.767, 216.925 378 C 223.912 363.353, 225.353 356.171, 225.353 336 C 225.353 321.070, 225.030 317.325, 223.156 310.500 C 218.402 293.194, 208.570 278.255, 194.890 267.551 C 180.408 256.220, 168.706 250.597, 134.532 238.552 C 109.427 229.703, 102.624 226.538, 96.422 220.821 C 86.621 211.787, 88.659 198.792, 100.746 193.259 C 118.103 185.312, 165.392 192.457, 198.888 208.086 C 203.502 210.239, 207.665 212, 208.138 212 C 208.612 212, 209 193.170, 209 170.155 L 209 128.310 198.250 124.664 C 185.052 120.188, 169.883 116.524, 155.999 114.459 C 146.013 112.974, 108.870 111.678, 102.500 112.593 M 863.500 112.942 C 845.016 115.992, 827.925 123.742, 813.341 135.686 L 809.181 139.092 807.659 132.296 C 806.822 128.558, 805.831 123.813, 805.457 121.750 L 804.777 118 765.389 118 L 726 118 726 325.519 L 726 533.038 728.250 532.514 C 729.487 532.226, 748.725 528.151, 771 523.459 C 793.275 518.766, 812.288 514.688, 813.250 514.396 C 814.840 513.914, 815 512.055, 815 494.096 C 815 483.222, 815.296 460.840, 815.657 444.357 L 816.314 414.388 822.887 418.796 C 844.694 433.419, 868.357 438.588, 895 434.548 C 919.307 430.862, 937.486 421.569, 955.627 403.556 C 978.021 381.319, 991.710 351.074, 997.521 310.990 C 999.763 295.525, 1000.556 264.546, 999.096 249.500 C 993.798 194.927, 971.320 152.279, 935.712 129.245 C 918.654 118.210, 901.920 113.033, 881.500 112.473 C 874.350 112.277, 866.250 112.488, 863.500 112.942 M 1130.500 113.568 C 1069.440 122.892, 1026.832 173.124, 1016.897 247.500 C 1015.146 260.606, 1015.416 292.087, 1017.403 306.500 C 1021.383 335.373, 1029.657 358.562, 1043.268 378.992 C 1050.308 389.561, 1068.554 407.219, 1079.285 413.851 C 1094.778 423.425, 1112.491 429.962, 1133 433.675 C 1144.798 435.811, 1180.014 436.104, 1193.500 434.179 C 1217.983 430.684, 1235.819 425.484, 1254.250 416.470 L 1262 412.679 1262 376.840 C 1262 357.128, 1261.831 341, 1261.625 341 C 1261.419 341, 1257.903 342.525, 1253.812 344.389 C 1238.522 351.357, 1218.797 356.707, 1200.026 358.976 C 1185.949 360.677, 1161.821 360.247, 1151.500 358.110 C 1133.172 354.316, 1119.299 344.539, 1112.511 330.632 C 1109.022 323.483, 1106 313.578, 1106 309.290 L 1106 307 1193.114 307 L 1280.229 307 1279.691 276.250 C 1279.128 244.084, 1278.122 234.784, 1273.103 215.320 C 1261.743 171.272, 1237.274 138.708, 1203.727 122.996 C 1183.046 113.309, 1155.457 109.757, 1130.500 113.568 M 547.254 115.435 C 533.368 118.066, 520.716 125.946, 512.534 137.060 L 508.161 143.002 506.667 136.251 C 505.845 132.538, 504.612 126.912, 503.927 123.750 L 502.682 118 463.841 118 L 425 118 425 274 L 425 430 470 430 L 515 430 515 324.152 L 515 218.304 520.810 212.762 C 527.385 206.491, 535.742 201.899, 544.898 199.527 C 551.985 197.690, 570.458 197.366, 575.993 198.981 C 577.915 199.541, 580.057 200, 580.754 200 C 581.762 200, 581.969 191.532, 581.761 158.773 L 581.500 117.546 576 116.315 C 566.994 114.299, 555.165 113.937, 547.254 115.435 M 603 274 L 603 430 648 430 L 693 430 693 274 L 693 118 648 118 L 603 118 603 274 M 1140 186.433 C 1127.444 189.932, 1117.408 198.329, 1111.549 210.236 C 1107.698 218.060, 1105.045 228.628, 1105.017 236.250 L 1105 241 1150.405 241 L 1195.810 241 1195.305 234.750 C 1193.231 209.105, 1181.053 191.560, 1161.764 186.425 C 1155.392 184.729, 1146.102 184.732, 1140 186.433 M 840.773 193.555 C 832.825 195.482, 825.623 199.341, 819.724 204.834 L 814.714 209.500 815.415 275 L 816.116 340.500 819.213 343.708 C 823.751 348.407, 834.401 353.604, 843.208 355.415 C 862.638 359.411, 876.818 355.296, 889.332 342.030 C 903.736 326.762, 911.086 303.946, 911.086 274.500 C 911.086 258.716, 909.588 247.748, 905.830 236 C 899.048 214.805, 884.593 198.128, 869.068 193.588 C 862.429 191.647, 848.711 191.631, 840.773 193.555" stroke="none" fill="#645cfc" fill-rule="evenodd"/></svg>