<svg version="1.1" id="Layer_1" xmlns="http://www.w3.org/2000/svg" xmlns:xlink="http://www.w3.org/1999/xlink" x="0px" y="0px"
	 width="100%" viewBox="0 0 1280 158" enable-background="new 0 0 1280 158" xml:space="preserve">
<path fill="none" opacity="1.000000" stroke="none" 
	d="
M1281.000000,126.000015 
	C1281.000000,136.995926 1281.000000,147.991867 1281.000000,158.993896 
	C906.642578,159.000000 532.285156,159.000000 157.126572,158.715683 
	C156.648392,158.051300 156.904602,157.439651 157.304001,157.324432 
	C175.544144,152.063660 187.318451,139.782074 194.602386,122.767326 
	C196.742065,117.769180 198.310272,112.526382 199.522522,109.127876 
	C196.917160,111.161003 193.152267,113.776924 189.756012,116.806152 
	C176.614029,128.527908 158.068222,132.951492 142.593521,121.022179 
	C134.527069,114.803825 127.401314,107.357048 119.917450,100.393349 
	C111.973045,93.001114 103.124992,87.145630 92.670853,83.932526 
	C80.639633,80.234703 68.500870,79.274284 55.903061,80.849472 
	C42.217369,82.560692 30.098501,87.234818 20.006876,96.576836 
	C11.834691,104.141991 7.016864,113.934814 2.975609,124.146408 
	C2.675026,124.905937 1.674915,125.388618 1.000000,126.000000 
	C1.000000,84.408371 1.000000,42.816742 1.000000,1.000000 
	C38.357109,1.000000 75.714676,1.000000 113.872757,1.299213 
	C114.195732,2.038740 113.777634,2.764071 113.231972,2.877899 
	C97.487061,6.162370 85.755875,15.042850 77.075798,28.383980 
	C72.056976,36.097824 67.461685,47.799305 67.564896,54.231777 
	C71.369255,50.323700 74.632156,46.528687 78.348000,43.246456 
	C86.215958,36.296619 95.577675,32.245167 106.049965,33.226692 
	C117.131691,34.265327 126.030106,40.142963 133.849457,48.151836 
	C141.327988,55.811626 148.941513,63.677917 157.717499,69.661446 
	C175.394745,81.713913 195.720139,83.225319 216.140289,79.717468 
	C233.321793,76.765953 247.365768,67.689896 256.099915,52.183411 
	C260.406311,44.537880 263.276978,36.083679 266.797333,27.995401 
	C261.303101,31.584522 257.275879,35.886791 252.781357,39.627594 
	C240.206985,50.093262 222.084625,51.386662 208.870956,41.788273 
	C201.162399,36.188782 194.808395,28.743538 187.725235,22.259502 
	C177.911270,13.275654 167.227783,5.762805 153.864426,2.929580 
	C153.139175,2.775820 152.616806,1.665207 152.000000,1.000002 
	C528.333313,1.000000 904.666687,1.000000 1281.000000,1.000000 
	C1281.000000,35.429440 1281.000000,69.750839 1280.668579,104.462418 
	C1273.634277,94.655693 1263.729004,89.617203 1252.196045,86.804848 
	C1246.906982,85.515068 1241.807617,83.339981 1236.745239,81.266495 
	C1233.443970,79.914383 1230.713135,77.186722 1231.971191,73.549164 
	C1232.927734,70.783958 1235.269409,67.682114 1237.825562,66.441116 
	C1245.069946,62.923908 1254.349731,65.704628 1259.380493,72.044250 
	C1260.280151,73.177780 1261.160522,74.326614 1262.180176,75.635880 
	C1267.170776,72.885086 1271.767700,70.231606 1276.479614,67.800529 
	C1279.154907,66.420265 1279.268677,64.568832 1277.661865,62.571430 
	C1275.284058,59.615463 1273.042969,56.299850 1270.021973,54.153210 
	C1255.190552,43.614628 1239.493530,42.974968 1223.466187,51.296822 
	C1206.451416,60.131390 1205.045654,85.389427 1221.256470,95.601471 
	C1226.637573,98.991356 1233.100708,100.706253 1239.144165,102.988617 
	C1244.119873,104.867752 1249.313721,106.198112 1254.207153,108.256256 
	C1257.681763,109.717697 1261.195923,112.519379 1259.688599,116.587502 
	C1258.582520,119.572121 1255.585571,123.006744 1252.687256,123.946831 
	C1245.777222,126.188141 1238.327148,126.161133 1232.063232,121.806602 
	C1228.806152,119.542412 1226.549194,115.839378 1223.449585,112.345802 
	C1218.015747,115.464554 1212.215332,118.793701 1205.922852,122.405258 
	C1207.835571,125.460327 1209.196289,128.128143 1211.009277,130.441299 
	C1218.001587,139.362579 1227.607788,143.353302 1238.575317,144.659225 
	C1251.863403,146.241470 1271.799072,142.878174 1279.141235,127.442261 
	C1279.442017,126.809837 1280.366211,126.474030 1281.000000,126.000015 
M743.063721,54.626530 
	C743.560364,52.736176 744.056946,50.845825 744.775574,48.110504 
	C737.791809,48.110504 731.367188,47.925335 724.973206,48.284801 
	C723.850281,48.347931 722.321411,50.536324 721.885803,52.010860 
	C718.116028,64.769379 714.576355,77.595650 710.919739,90.387901 
	C709.129639,96.650505 707.236877,102.883736 705.390564,109.130257 
	C699.146301,91.761139 693.908386,74.596375 688.922791,57.358620 
	C686.232422,48.056473 686.427185,48.000038 676.973938,47.999783 
	C674.974915,47.999729 672.958130,48.170490 670.980652,47.964268 
	C667.335449,47.584129 665.575195,49.197262 664.571472,52.647919 
	C660.808655,65.585030 656.846008,78.464233 652.929016,91.356255 
	C651.127197,97.286453 649.257629,103.196083 646.996765,110.473717 
	C646.258362,108.332809 646.025391,107.749763 645.854736,107.148987 
	C640.629089,88.749458 635.453735,70.335350 630.105103,51.971657 
	C629.677856,50.504814 628.119690,48.339516 626.987427,48.276020 
	C620.600159,47.917801 614.182495,48.103035 607.319519,48.103035 
	C607.747925,50.065296 607.907654,51.195366 608.242188,52.271080 
	C617.185608,81.026344 626.097961,109.791626 635.243958,138.482407 
	C635.721130,139.979401 638.130005,141.667267 639.780762,141.829514 
	C644.400330,142.283554 649.125610,142.291000 653.741333,141.815781 
	C655.378296,141.647247 657.691895,139.872086 658.209351,138.331009 
	C661.702820,127.927399 664.774536,117.382690 668.027832,106.897659 
	C670.513184,98.887604 673.065002,90.898178 675.885925,81.952606 
	C676.746033,83.545670 677.136841,84.053047 677.312256,84.626343 
	C681.595764,98.622581 686.089233,112.560219 690.058533,126.645462 
	C694.391174,142.019913 694.177979,142.079956 709.972412,141.999924 
	C710.638733,141.996552 711.470886,142.251709 711.941772,141.947235 
	C713.672607,140.828140 716.276611,139.843109 716.791870,138.241425 
	C725.658081,110.681313 734.261108,83.036545 743.063721,54.626530 
M922.738159,135.833954 
	C943.196716,148.902756 962.859436,148.847122 981.460327,131.876419 
	C983.001709,142.000244 983.001709,142.000244 993.373291,141.999985 
	C994.539978,141.999954 995.725525,141.863785 996.869995,142.023285 
	C1001.683594,142.694153 1003.128723,140.698151 1003.097290,135.879471 
	C1002.902588,106.047508 1003.000061,76.213631 1002.999878,46.380394 
	C1002.999817,36.213760 1002.884949,26.045216 1003.056702,15.881501 
	C1003.118896,12.200744 1001.835510,10.733418 998.131348,10.955008 
	C994.477844,11.173564 990.787842,11.195581 987.137817,10.949503 
	C983.221802,10.685482 981.876709,12.176542 981.932434,16.111824 
	C982.116272,29.109173 982.010437,42.110779 981.983398,55.110683 
	C981.980957,56.291039 981.746155,57.470905 981.573792,59.074738 
	C970.127441,47.616631 956.728882,43.845715 941.742615,46.685032 
	C918.260315,51.133995 903.599365,70.971046 903.157471,94.786819 
	C902.855042,111.084740 909.402222,124.878860 922.738159,135.833954 
M441.161560,47.457947 
	C420.024841,53.331665 406.334747,72.500000 406.181488,94.994453 
	C406.062744,112.427132 413.149353,127.052368 427.854889,137.162903 
	C444.752319,148.780457 469.335754,147.546707 482.033661,133.505783 
	C482.630219,132.846100 483.494049,132.428040 484.403259,131.775589 
	C486.090881,142.000565 486.090881,142.000565 496.822693,142.000000 
	C497.822266,141.999939 498.837982,141.883255 499.818634,142.019440 
	C504.556091,142.677277 506.142090,140.827957 506.100952,135.935898 
	C505.883728,110.115685 506.045349,84.292572 505.979187,58.470703 
	C505.948730,46.582935 507.491943,48.091450 495.732819,48.013859 
	C485.440826,47.945946 485.444275,47.999866 484.878784,57.987675 
	C484.866669,58.202000 484.477386,58.394970 484.201782,58.657104 
	C472.280609,46.917168 458.020874,43.706715 441.161560,47.457947 
M829.168457,72.709404 
	C835.879272,65.667191 848.882385,63.521130 857.203369,68.164536 
	C864.848816,72.430977 866.827148,79.761124 866.932129,87.661407 
	C867.151062,104.143120 867.077271,120.630363 866.943848,137.113876 
	C866.914124,140.778290 868.144714,142.260071 871.854919,142.045959 
	C875.671997,141.825684 879.518250,141.856125 883.339355,142.037918 
	C886.754456,142.200378 888.142273,140.920471 888.046570,137.419601 
	C887.869446,130.930557 888.093750,124.431480 887.980225,117.939552 
	C887.742126,104.316406 888.149536,90.626602 886.921509,77.088463 
	C884.815308,53.866699 865.594666,42.301105 842.175659,46.723396 
	C834.609070,48.152214 828.704956,52.319023 822.999817,58.493805 
	C822.999817,56.208736 822.870361,55.033852 823.022644,53.896694 
	C823.632324,49.344028 821.821472,47.508339 817.162781,47.934307 
	C813.529663,48.266495 809.839478,48.096146 806.180054,47.980610 
	C803.248535,47.888054 801.971558,49.017776 801.977478,52.057961 
	C802.033386,80.697754 802.033508,109.337746 801.977966,137.977539 
	C801.971985,141.047592 803.318665,142.103577 806.217163,142.019012 
	C810.043640,141.907349 813.892273,141.774582 817.701233,142.057465 
	C821.937500,142.372086 823.120178,140.598297 823.070312,136.556885 
	C822.889526,121.906143 822.923706,107.251221 823.033875,92.599060 
	C823.085999,85.671120 824.522400,79.055435 829.168457,72.709404 
M1099.914795,112.586029 
	C1096.639893,110.073105 1094.282349,110.040192 1091.351318,113.804092 
	C1088.808716,117.069069 1085.076782,119.943062 1081.265869,121.595985 
	C1060.473267,130.614441 1040.541138,113.825775 1041.837646,94.623138 
	C1042.649414,82.601349 1047.308960,73.375519 1058.416748,69.070023 
	C1069.119019,64.921700 1080.043579,65.121056 1088.978760,74.141762 
	C1090.933228,76.115005 1092.622192,78.351181 1094.671753,80.744537 
	C1099.290527,78.075951 1103.613892,75.254356 1108.221069,73.016907 
	C1112.018921,71.172440 1112.083862,69.300987 1109.789551,66.130707 
	C1099.762085,52.275249 1086.357788,45.675068 1069.201904,45.942677 
	C1036.731812,46.449162 1015.395935,72.975296 1021.775024,106.152504 
	C1027.150879,134.111893 1054.066895,150.042664 1081.915527,143.548477 
	C1093.823242,140.771652 1103.131592,134.363983 1110.112305,124.386040 
	C1112.103638,121.539726 1112.438477,119.449104 1108.712036,117.743858 
	C1105.854248,116.436157 1103.234985,114.607513 1099.914795,112.586029 
M1173.913818,114.831284 
	C1174.263184,118.973915 1172.708130,122.243927 1168.712646,123.498543 
	C1160.479980,126.083649 1152.195435,126.536087 1144.976685,120.841347 
	C1142.209351,118.658150 1140.299927,115.387253 1137.692383,112.241386 
	C1132.830688,115.051323 1127.719604,117.774231 1122.924683,120.970985 
	C1121.961670,121.613022 1121.359619,124.742569 1122.023438,125.555115 
	C1125.664062,130.011536 1129.084717,135.172058 1133.810547,138.118118 
	C1147.358398,146.563583 1162.160522,147.064194 1177.012817,141.778793 
	C1195.416382,135.229599 1201.802368,113.614784 1189.636108,98.648415 
	C1184.067627,91.798317 1175.521362,89.637978 1167.418213,87.045082 
	C1161.579102,85.176605 1155.609131,83.465599 1150.162354,80.751511 
	C1148.111450,79.729561 1146.206543,76.006271 1146.354858,73.647827 
	C1146.507446,71.223923 1148.864624,68.487823 1150.979004,66.784172 
	C1152.606445,65.472839 1155.331665,65.206245 1157.604370,65.070404 
	C1165.888550,64.575233 1171.804688,68.725151 1176.304077,75.793114 
	C1182.287476,72.359207 1187.939087,69.115723 1193.686646,65.817238 
	C1193.055542,64.481239 1192.775635,63.696598 1192.345337,63.005684 
	C1180.559692,44.082249 1149.623901,39.805584 1132.861694,54.607075 
	C1120.582397,65.450005 1120.775024,88.107147 1135.735596,95.663620 
	C1143.376221,99.522812 1151.810669,101.785240 1159.788574,105.010666 
	C1164.993652,107.115021 1171.563232,107.285942 1173.913818,114.831284 
M338.987488,48.180134 
	C338.325012,51.207954 337.150208,54.225788 337.090973,57.265369 
	C336.865173,68.849693 337.002167,69.054718 348.479034,68.906876 
	C352.997711,68.848671 354.150085,70.466499 354.080872,74.725845 
	C353.861725,88.216904 353.912506,101.714531 354.024933,115.208229 
	C354.154816,130.795425 360.689331,139.695786 375.010162,142.301422 
	C381.628632,143.505661 388.601105,142.836334 395.412384,142.814194 
	C396.226105,142.811539 397.715515,141.556534 397.739594,140.843124 
	C397.932190,135.139221 397.847137,129.425949 397.847137,124.331161 
	C392.280365,123.856682 387.649719,123.685669 383.092377,123.015770 
	C377.646545,122.215271 375.143799,119.496948 375.075012,113.983627 
	C374.904572,100.324547 375.059540,86.661697 374.977173,73.001007 
	C374.958527,69.904053 376.369537,68.908249 379.245911,68.986961 
	C383.241272,69.096291 387.241943,69.013985 391.240356,69.005569 
	C397.986877,68.991379 397.986908,68.988693 398.000000,62.025051 
	C398.026398,48.001369 398.026367,48.017414 383.790588,47.994289 
	C374.067261,47.978500 375.044159,48.817093 375.006561,39.051109 
	C374.979279,31.965631 375.001221,24.879965 375.001221,17.012304 
	C368.786804,18.851664 363.615295,20.595995 358.329926,21.866653 
	C355.154236,22.630123 353.872559,24.149113 353.961853,27.384295 
	C354.113464,32.877769 353.913177,38.380329 354.022888,43.875835 
	C354.082489,46.861744 352.871094,48.119869 349.880066,48.020039 
	C346.552795,47.908985 343.217712,48.032658 338.987488,48.180134 
M572.000000,81.500000 
	C572.000366,99.804657 572.122925,118.110718 571.912842,136.412964 
	C571.862061,140.834213 573.293213,142.464539 577.650024,142.053009 
	C580.618835,141.772583 583.667603,141.721573 586.623779,142.061707 
	C591.694153,142.645111 593.133850,140.706375 593.107971,135.641495 
	C592.910767,97.036278 593.000000,58.429596 593.000061,19.823374 
	C593.000061,4.904975 592.997742,5.085296 578.123169,4.896995 
	C573.321228,4.836207 571.855469,6.292233 571.901428,11.109591 
	C572.121887,34.237938 572.000183,57.369549 572.000000,81.500000 
M780.000000,98.500000 
	C779.999390,83.365784 779.897278,68.230431 780.067444,53.098141 
	C780.111633,49.168633 778.772217,47.669762 774.869141,47.952263 
	C771.560364,48.191750 768.197998,48.244022 764.899597,47.941227 
	C760.345886,47.523205 758.868042,49.192791 758.906433,53.829762 
	C759.107727,78.109375 759.000122,102.391556 759.000000,126.672836 
	C758.999939,142.338058 758.998962,142.229416 774.855469,142.075989 
	C778.716736,142.038620 780.128601,140.871307 780.068420,136.918716 
	C779.878418,124.448357 779.999329,111.973259 780.000000,98.500000 
M529.000000,67.500504 
	C529.000000,72.822418 528.999878,78.144341 529.000061,83.466255 
	C529.000793,101.261406 529.085693,119.057259 528.936218,136.851151 
	C528.903748,140.718613 530.118408,142.317245 534.082764,142.052460 
	C537.890991,141.798080 541.733704,141.881332 545.553101,142.029068 
	C548.697632,142.150711 550.193542,141.007263 550.024841,137.714859 
	C549.871887,134.729263 549.999634,131.729401 549.999634,128.735840 
	C549.999939,103.623062 549.927917,78.509872 550.070618,53.397907 
	C550.093811,49.317814 548.852173,47.620262 544.669434,47.945908 
	C541.197998,48.216175 537.676758,48.183109 534.199524,47.952774 
	C530.379211,47.699711 528.705139,49.010586 528.942078,53.033283 
	C529.205566,57.508076 529.000854,62.010445 529.000000,67.500504 
M768.673889,8.433826 
	C767.859863,8.610623 767.040649,8.766243 766.232727,8.967593 
	C760.410828,10.418557 755.994873,15.873106 756.016418,21.573185 
	C756.040283,27.855679 759.871216,33.039894 765.684998,34.657162 
	C771.325623,36.226269 777.532654,33.476940 780.758545,28.452772 
	C785.263855,21.435875 781.635864,8.778554 768.673889,8.433826 
M526.704346,25.496897 
	C529.480652,33.147655 535.727966,36.567581 543.061340,34.451107 
	C549.591248,32.566525 553.683167,25.557779 552.164124,18.859484 
	C550.475647,11.413988 544.425781,7.419183 536.968262,8.825515 
	C529.496765,10.234478 525.344910,16.505957 526.704346,25.496897 
z"/>
<path fill="#38BDF8" opacity="1.000000" stroke="none" 
	d="
M151.531342,1.000002 
	C152.616806,1.665207 153.139175,2.775820 153.864426,2.929580 
	C167.227783,5.762805 177.911270,13.275654 187.725235,22.259502 
	C194.808395,28.743538 201.162399,36.188782 208.870956,41.788273 
	C222.084625,51.386662 240.206985,50.093262 252.781357,39.627594 
	C257.275879,35.886791 261.303101,31.584522 266.797333,27.995401 
	C263.276978,36.083679 260.406311,44.537880 256.099915,52.183411 
	C247.365768,67.689896 233.321793,76.765953 216.140289,79.717468 
	C195.720139,83.225319 175.394745,81.713913 157.717499,69.661446 
	C148.941513,63.677917 141.327988,55.811626 133.849457,48.151836 
	C126.030106,40.142963 117.131691,34.265327 106.049965,33.226692 
	C95.577675,32.245167 86.215958,36.296619 78.348000,43.246456 
	C74.632156,46.528687 71.369255,50.323700 67.564896,54.231777 
	C67.461685,47.799305 72.056976,36.097824 77.075798,28.383980 
	C85.755875,15.042850 97.487061,6.162370 113.231972,2.877899 
	C113.777634,2.764071 114.195732,2.038740 114.336639,1.299213 
	C126.354225,1.000000 138.708450,1.000000 151.531342,1.000002 
z"/>
<path fill="#38BDF8" opacity="1.000000" stroke="none" 
	d="
M1.000000,126.444168 
	C1.674915,125.388618 2.675026,124.905937 2.975609,124.146408 
	C7.016864,113.934814 11.834691,104.141991 20.006876,96.576836 
	C30.098501,87.234818 42.217369,82.560692 55.903061,80.849472 
	C68.500870,79.274284 80.639633,80.234703 92.670853,83.932526 
	C103.124992,87.145630 111.973045,93.001114 119.917450,100.393349 
	C127.401314,107.357048 134.527069,114.803825 142.593521,121.022179 
	C158.068222,132.951492 176.614029,128.527908 189.756012,116.806152 
	C193.152267,113.776924 196.917160,111.161003 199.522522,109.127876 
	C198.310272,112.526382 196.742065,117.769180 194.602386,122.767326 
	C187.318451,139.782074 175.544144,152.063660 157.304001,157.324432 
	C156.904602,157.439651 156.648392,158.051300 156.662689,158.715683 
	C141.312439,159.000000 125.624878,159.000000 109.805313,158.719696 
	C109.048004,157.967377 108.475540,157.392731 107.789162,157.039352 
	C101.497726,153.800354 94.492546,151.481934 89.036774,147.190033 
	C79.874405,139.982269 71.537117,131.688278 63.136765,123.557800 
	C49.853416,110.701202 28.777494,109.278435 14.732140,120.873932 
	C9.861962,124.894630 5.560969,129.604767 0.999999,134.000000 
	C1.000000,131.629440 1.000000,129.258896 1.000000,126.444168 
z"/>
<path fill="#0F172A" opacity="1.000000" stroke="none" 
	d="
M1281.000000,125.531479 
	C1280.366211,126.474030 1279.442017,126.809837 1279.141235,127.442261 
	C1271.799072,142.878174 1251.863403,146.241470 1238.575317,144.659225 
	C1227.607788,143.353302 1218.001587,139.362579 1211.009277,130.441299 
	C1209.196289,128.128143 1207.835571,125.460327 1205.922852,122.405258 
	C1212.215332,118.793701 1218.015747,115.464554 1223.449585,112.345802 
	C1226.549194,115.839378 1228.806152,119.542412 1232.063232,121.806602 
	C1238.327148,126.161133 1245.777222,126.188141 1252.687256,123.946831 
	C1255.585571,123.006744 1258.582520,119.572121 1259.688599,116.587502 
	C1261.195923,112.519379 1257.681763,109.717697 1254.207153,108.256256 
	C1249.313721,106.198112 1244.119873,104.867752 1239.144165,102.988617 
	C1233.100708,100.706253 1226.637573,98.991356 1221.256470,95.601471 
	C1205.045654,85.389427 1206.451416,60.131390 1223.466187,51.296822 
	C1239.493530,42.974968 1255.190552,43.614628 1270.021973,54.153210 
	C1273.042969,56.299850 1275.284058,59.615463 1277.661865,62.571430 
	C1279.268677,64.568832 1279.154907,66.420265 1276.479614,67.800529 
	C1271.767700,70.231606 1267.170776,72.885086 1262.180176,75.635880 
	C1261.160522,74.326614 1260.280151,73.177780 1259.380493,72.044250 
	C1254.349731,65.704628 1245.069946,62.923908 1237.825562,66.441116 
	C1235.269409,67.682114 1232.927734,70.783958 1231.971191,73.549164 
	C1230.713135,77.186722 1233.443970,79.914383 1236.745239,81.266495 
	C1241.807617,83.339981 1246.906982,85.515068 1252.196045,86.804848 
	C1263.729004,89.617203 1273.634277,94.655693 1280.668579,104.926300 
	C1281.000000,111.687645 1281.000000,118.375290 1281.000000,125.531479 
z"/>
<path fill="none" opacity="1.000000" stroke="none" 
	d="
M0.999999,134.468674 
	C5.560969,129.604767 9.861962,124.894630 14.732140,120.873932 
	C28.777494,109.278435 49.853416,110.701202 63.136765,123.557800 
	C71.537117,131.688278 79.874405,139.982269 89.036774,147.190033 
	C94.492546,151.481934 101.497726,153.800354 107.789162,157.039352 
	C108.475540,157.392731 109.048004,157.967377 109.336655,158.719696 
	C73.118820,159.000000 37.237644,159.000000 1.000000,159.000000 
	C1.000000,150.982635 1.000000,142.959991 0.999999,134.468674 
z"/>
<path fill="#0F172A" opacity="1.000000" stroke="none" 
	d="
M742.992798,55.018433 
	C734.261108,83.036545 725.658081,110.681313 716.791870,138.241425 
	C716.276611,139.843109 713.672607,140.828140 711.941772,141.947235 
	C711.470886,142.251709 710.638733,141.996552 709.972412,141.999924 
	C694.177979,142.079956 694.391174,142.019913 690.058533,126.645462 
	C686.089233,112.560219 681.595764,98.622581 677.312256,84.626343 
	C677.136841,84.053047 676.746033,83.545670 675.885925,81.952606 
	C673.065002,90.898178 670.513184,98.887604 668.027832,106.897659 
	C664.774536,117.382690 661.702820,127.927399 658.209351,138.331009 
	C657.691895,139.872086 655.378296,141.647247 653.741333,141.815781 
	C649.125610,142.291000 644.400330,142.283554 639.780762,141.829514 
	C638.130005,141.667267 635.721130,139.979401 635.243958,138.482407 
	C626.097961,109.791626 617.185608,81.026344 608.242188,52.271080 
	C607.907654,51.195366 607.747925,50.065296 607.319519,48.103035 
	C614.182495,48.103035 620.600159,47.917801 626.987427,48.276020 
	C628.119690,48.339516 629.677856,50.504814 630.105103,51.971657 
	C635.453735,70.335350 640.629089,88.749458 645.854736,107.148987 
	C646.025391,107.749763 646.258362,108.332809 646.996765,110.473717 
	C649.257629,103.196083 651.127197,97.286453 652.929016,91.356255 
	C656.846008,78.464233 660.808655,65.585030 664.571472,52.647919 
	C665.575195,49.197262 667.335449,47.584129 670.980652,47.964268 
	C672.958130,48.170490 674.974915,47.999729 676.973938,47.999783 
	C686.427185,48.000038 686.232422,48.056473 688.922791,57.358620 
	C693.908386,74.596375 699.146301,91.761139 705.390564,109.130257 
	C707.236877,102.883736 709.129639,96.650505 710.919739,90.387901 
	C714.576355,77.595650 718.116028,64.769379 721.885803,52.010860 
	C722.321411,50.536324 723.850281,48.347931 724.973206,48.284801 
	C731.367188,47.925335 737.791809,48.110504 744.775574,48.110504 
	C744.056946,50.845825 743.560364,52.736176 742.992798,55.018433 
z"/>
<path fill="#0F172A" opacity="1.000000" stroke="none" 
	d="
M922.439331,135.634949 
	C909.402222,124.878860 902.855042,111.084740 903.157471,94.786819 
	C903.599365,70.971046 918.260315,51.133995 941.742615,46.685032 
	C956.728882,43.845715 970.127441,47.616631 981.573792,59.074738 
	C981.746155,57.470905 981.980957,56.291039 981.983398,55.110683 
	C982.010437,42.110779 982.116272,29.109173 981.932434,16.111824 
	C981.876709,12.176542 983.221802,10.685482 987.137817,10.949503 
	C990.787842,11.195581 994.477844,11.173564 998.131348,10.955008 
	C1001.835510,10.733418 1003.118896,12.200744 1003.056702,15.881501 
	C1002.884949,26.045216 1002.999817,36.213760 1002.999878,46.380394 
	C1003.000061,76.213631 1002.902588,106.047508 1003.097290,135.879471 
	C1003.128723,140.698151 1001.683594,142.694153 996.869995,142.023285 
	C995.725525,141.863785 994.539978,141.999954 993.373291,141.999985 
	C983.001709,142.000244 983.001709,142.000244 981.460327,131.876419 
	C962.859436,148.847122 943.196716,148.902756 922.439331,135.634949 
M972.971741,73.497337 
	C960.719238,63.491554 947.902832,64.101707 937.705627,70.320152 
	C928.449097,75.964981 921.659302,89.045151 925.141907,102.564186 
	C927.847351,113.066399 934.231628,120.070534 944.672729,123.362297 
	C955.770569,126.861122 965.679382,124.191299 973.728821,116.467850 
	C985.281982,105.382622 984.841248,86.818466 972.971741,73.497337 
z"/>
<path fill="#0F172A" opacity="1.000000" stroke="none" 
	d="
M441.557739,47.336021 
	C458.020874,43.706715 472.280609,46.917168 484.201782,58.657104 
	C484.477386,58.394970 484.866669,58.202000 484.878784,57.987675 
	C485.444275,47.999866 485.440826,47.945946 495.732819,48.013859 
	C507.491943,48.091450 505.948730,46.582935 505.979187,58.470703 
	C506.045349,84.292572 505.883728,110.115685 506.100952,135.935898 
	C506.142090,140.827957 504.556091,142.677277 499.818634,142.019440 
	C498.837982,141.883255 497.822266,141.999939 496.822693,142.000000 
	C486.090881,142.000565 486.090881,142.000565 484.403259,131.775589 
	C483.494049,132.428040 482.630219,132.846100 482.033661,133.505783 
	C469.335754,147.546707 444.752319,148.780457 427.854889,137.162903 
	C413.149353,127.052368 406.062744,112.427132 406.181488,94.994453 
	C406.334747,72.500000 420.024841,53.331665 441.557739,47.336021 
M483.553284,85.277405 
	C479.236694,73.650284 470.768341,67.056686 458.557373,66.099632 
	C436.396149,64.362694 422.013092,85.914017 429.139832,105.763222 
	C433.501129,117.910110 442.955200,124.024750 455.387207,124.788429 
	C465.244293,125.393951 476.424805,120.396721 481.879700,109.361809 
	C485.635376,101.764305 485.778107,94.033264 483.553284,85.277405 
z"/>
<path fill="#0F172A" opacity="1.000000" stroke="none" 
	d="
M828.983032,73.025528 
	C824.522400,79.055435 823.085999,85.671120 823.033875,92.599060 
	C822.923706,107.251221 822.889526,121.906143 823.070312,136.556885 
	C823.120178,140.598297 821.937500,142.372086 817.701233,142.057465 
	C813.892273,141.774582 810.043640,141.907349 806.217163,142.019012 
	C803.318665,142.103577 801.971985,141.047592 801.977966,137.977539 
	C802.033508,109.337746 802.033386,80.697754 801.977478,52.057961 
	C801.971558,49.017776 803.248535,47.888054 806.180054,47.980610 
	C809.839478,48.096146 813.529663,48.266495 817.162781,47.934307 
	C821.821472,47.508339 823.632324,49.344028 823.022644,53.896694 
	C822.870361,55.033852 822.999817,56.208736 822.999817,58.493805 
	C828.704956,52.319023 834.609070,48.152214 842.175659,46.723396 
	C865.594666,42.301105 884.815308,53.866699 886.921509,77.088463 
	C888.149536,90.626602 887.742126,104.316406 887.980225,117.939552 
	C888.093750,124.431480 887.869446,130.930557 888.046570,137.419601 
	C888.142273,140.920471 886.754456,142.200378 883.339355,142.037918 
	C879.518250,141.856125 875.671997,141.825684 871.854919,142.045959 
	C868.144714,142.260071 866.914124,140.778290 866.943848,137.113876 
	C867.077271,120.630363 867.151062,104.143120 866.932129,87.661407 
	C866.827148,79.761124 864.848816,72.430977 857.203369,68.164536 
	C848.882385,63.521130 835.879272,65.667191 828.983032,73.025528 
z"/>
<path fill="#0F172A" opacity="1.000000" stroke="none" 
	d="
M1100.212158,112.798294 
	C1103.234985,114.607513 1105.854248,116.436157 1108.712036,117.743858 
	C1112.438477,119.449104 1112.103638,121.539726 1110.112305,124.386040 
	C1103.131592,134.363983 1093.823242,140.771652 1081.915527,143.548477 
	C1054.066895,150.042664 1027.150879,134.111893 1021.775024,106.152504 
	C1015.395935,72.975296 1036.731812,46.449162 1069.201904,45.942677 
	C1086.357788,45.675068 1099.762085,52.275249 1109.789551,66.130707 
	C1112.083862,69.300987 1112.018921,71.172440 1108.221069,73.016907 
	C1103.613892,75.254356 1099.290527,78.075951 1094.671753,80.744537 
	C1092.622192,78.351181 1090.933228,76.115005 1088.978760,74.141762 
	C1080.043579,65.121056 1069.119019,64.921700 1058.416748,69.070023 
	C1047.308960,73.375519 1042.649414,82.601349 1041.837646,94.623138 
	C1040.541138,113.825775 1060.473267,130.614441 1081.265869,121.595985 
	C1085.076782,119.943062 1088.808716,117.069069 1091.351318,113.804092 
	C1094.282349,110.040192 1096.639893,110.073105 1100.212158,112.798294 
z"/>
<path fill="#0F172A" opacity="1.000000" stroke="none" 
	d="
M1173.851196,114.446213 
	C1171.563232,107.285942 1164.993652,107.115021 1159.788574,105.010666 
	C1151.810669,101.785240 1143.376221,99.522812 1135.735596,95.663620 
	C1120.775024,88.107147 1120.582397,65.450005 1132.861694,54.607075 
	C1149.623901,39.805584 1180.559692,44.082249 1192.345337,63.005684 
	C1192.775635,63.696598 1193.055542,64.481239 1193.686646,65.817238 
	C1187.939087,69.115723 1182.287476,72.359207 1176.304077,75.793114 
	C1171.804688,68.725151 1165.888550,64.575233 1157.604370,65.070404 
	C1155.331665,65.206245 1152.606445,65.472839 1150.979004,66.784172 
	C1148.864624,68.487823 1146.507446,71.223923 1146.354858,73.647827 
	C1146.206543,76.006271 1148.111450,79.729561 1150.162354,80.751511 
	C1155.609131,83.465599 1161.579102,85.176605 1167.418213,87.045082 
	C1175.521362,89.637978 1184.067627,91.798317 1189.636108,98.648415 
	C1201.802368,113.614784 1195.416382,135.229599 1177.012817,141.778793 
	C1162.160522,147.064194 1147.358398,146.563583 1133.810547,138.118118 
	C1129.084717,135.172058 1125.664062,130.011536 1122.023438,125.555115 
	C1121.359619,124.742569 1121.961670,121.613022 1122.924683,120.970985 
	C1127.719604,117.774231 1132.830688,115.051323 1137.692383,112.241386 
	C1140.299927,115.387253 1142.209351,118.658150 1144.976685,120.841347 
	C1152.195435,126.536087 1160.479980,126.083649 1168.712646,123.498543 
	C1172.708130,122.243927 1174.263184,118.973915 1173.851196,114.446213 
z"/>
<path fill="#0F172A" opacity="1.000000" stroke="none" 
	d="
M339.436768,48.117142 
	C343.217712,48.032658 346.552795,47.908985 349.880066,48.020039 
	C352.871094,48.119869 354.082489,46.861744 354.022888,43.875835 
	C353.913177,38.380329 354.113464,32.877769 353.961853,27.384295 
	C353.872559,24.149113 355.154236,22.630123 358.329926,21.866653 
	C363.615295,20.595995 368.786804,18.851664 375.001221,17.012304 
	C375.001221,24.879965 374.979279,31.965631 375.006561,39.051109 
	C375.044159,48.817093 374.067261,47.978500 383.790588,47.994289 
	C398.026367,48.017414 398.026398,48.001369 398.000000,62.025051 
	C397.986908,68.988693 397.986877,68.991379 391.240356,69.005569 
	C387.241943,69.013985 383.241272,69.096291 379.245911,68.986961 
	C376.369537,68.908249 374.958527,69.904053 374.977173,73.001007 
	C375.059540,86.661697 374.904572,100.324547 375.075012,113.983627 
	C375.143799,119.496948 377.646545,122.215271 383.092377,123.015770 
	C387.649719,123.685669 392.280365,123.856682 397.847137,124.331161 
	C397.847137,129.425949 397.932190,135.139221 397.739594,140.843124 
	C397.715515,141.556534 396.226105,142.811539 395.412384,142.814194 
	C388.601105,142.836334 381.628632,143.505661 375.010162,142.301422 
	C360.689331,139.695786 354.154816,130.795425 354.024933,115.208229 
	C353.912506,101.714531 353.861725,88.216904 354.080872,74.725845 
	C354.150085,70.466499 352.997711,68.848671 348.479034,68.906876 
	C337.002167,69.054718 336.865173,68.849693 337.090973,57.265369 
	C337.150208,54.225788 338.325012,51.207954 339.436768,48.117142 
z"/>
<path fill="#0F172A" opacity="1.000000" stroke="none" 
	d="
M572.000000,81.000000 
	C572.000183,57.369549 572.121887,34.237938 571.901428,11.109591 
	C571.855469,6.292233 573.321228,4.836207 578.123169,4.896995 
	C592.997742,5.085296 593.000061,4.904975 593.000061,19.823374 
	C593.000000,58.429596 592.910767,97.036278 593.107971,135.641495 
	C593.133850,140.706375 591.694153,142.645111 586.623779,142.061707 
	C583.667603,141.721573 580.618835,141.772583 577.650024,142.053009 
	C573.293213,142.464539 571.862061,140.834213 571.912842,136.412964 
	C572.122925,118.110718 572.000366,99.804657 572.000000,81.000000 
z"/>
<path fill="#0F172A" opacity="1.000000" stroke="none" 
	d="
M780.000000,99.000000 
	C779.999329,111.973259 779.878418,124.448357 780.068420,136.918716 
	C780.128601,140.871307 778.716736,142.038620 774.855469,142.075989 
	C758.998962,142.229416 758.999939,142.338058 759.000000,126.672836 
	C759.000122,102.391556 759.107727,78.109375 758.906433,53.829762 
	C758.868042,49.192791 760.345886,47.523205 764.899597,47.941227 
	C768.197998,48.244022 771.560364,48.191750 774.869141,47.952263 
	C778.772217,47.669762 780.111633,49.168633 780.067444,53.098141 
	C779.897278,68.230431 779.999390,83.365784 780.000000,99.000000 
z"/>
<path fill="#0F172A" opacity="1.000000" stroke="none" 
	d="
M529.000000,67.000656 
	C529.000854,62.010445 529.205566,57.508076 528.942078,53.033283 
	C528.705139,49.010586 530.379211,47.699711 534.199524,47.952774 
	C537.676758,48.183109 541.197998,48.216175 544.669434,47.945908 
	C548.852173,47.620262 550.093811,49.317814 550.070618,53.397907 
	C549.927917,78.509872 549.999939,103.623062 549.999634,128.735840 
	C549.999634,131.729401 549.871887,134.729263 550.024841,137.714859 
	C550.193542,141.007263 548.697632,142.150711 545.553101,142.029068 
	C541.733704,141.881332 537.890991,141.798080 534.082764,142.052460 
	C530.118408,142.317245 528.903748,140.718613 528.936218,136.851151 
	C529.085693,119.057259 529.000793,101.261406 529.000061,83.466255 
	C528.999878,78.144341 529.000000,72.822418 529.000000,67.000656 
z"/>
<path fill="#0F172A" opacity="1.000000" stroke="none" 
	d="
M769.058716,8.435495 
	C781.635864,8.778554 785.263855,21.435875 780.758545,28.452772 
	C777.532654,33.476940 771.325623,36.226269 765.684998,34.657162 
	C759.871216,33.039894 756.040283,27.855679 756.016418,21.573185 
	C755.994873,15.873106 760.410828,10.418557 766.232727,8.967593 
	C767.040649,8.766243 767.859863,8.610623 769.058716,8.435495 
z"/>
<path fill="#0F172A" opacity="1.000000" stroke="none" 
	d="
M526.567566,25.119801 
	C525.344910,16.505957 529.496765,10.234478 536.968262,8.825515 
	C544.425781,7.419183 550.475647,11.413988 552.164124,18.859484 
	C553.683167,25.557779 549.591248,32.566525 543.061340,34.451107 
	C535.727966,36.567581 529.480652,33.147655 526.567566,25.119801 
z"/>
<path fill="none" opacity="1.000000" stroke="none" 
	d="
M973.231445,73.748932 
	C984.841248,86.818466 985.281982,105.382622 973.728821,116.467850 
	C965.679382,124.191299 955.770569,126.861122 944.672729,123.362297 
	C934.231628,120.070534 927.847351,113.066399 925.141907,102.564186 
	C921.659302,89.045151 928.449097,75.964981 937.705627,70.320152 
	C947.902832,64.101707 960.719238,63.491554 973.231445,73.748932 
z"/>
<path fill="none" opacity="1.000000" stroke="none" 
	d="
M483.677765,85.662025 
	C485.778107,94.033264 485.635376,101.764305 481.879700,109.361809 
	C476.424805,120.396721 465.244293,125.393951 455.387207,124.788429 
	C442.955200,124.024750 433.501129,117.910110 429.139832,105.763222 
	C422.013092,85.914017 436.396149,64.362694 458.557373,66.099632 
	C470.768341,67.056686 479.236694,73.650284 483.677765,85.662025 
z"/>
</svg>