<svg xmlns="http://www.w3.org/2000/svg" width="2048" height="2048" viewBox="0 0 2048 2048" version="1.1"><path d="M 1579 953.024 C 1543.074 955.351, 1508.542 960.588, 1476.899 968.508 C 1387.081 990.989, 1320.670 1039.719, 1287.513 1107.472 C 1277.060 1128.831, 1271.086 1148.666, 1266.873 1176 C 1263.879 1195.426, 1263.605 1236.926, 1266.348 1255.500 C 1276.001 1320.871, 1304.898 1370.168, 1359 1413.561 C 1370.380 1422.689, 1395.345 1439.436, 1410.358 1448.015 C 1427.601 1457.868, 1457.242 1471.918, 1487 1484.344 C 1574.303 1520.799, 1609.724 1540.098, 1635.822 1565.431 C 1647.943 1577.196, 1654.606 1585.842, 1659.442 1596.080 C 1665.204 1608.279, 1666.493 1614.629, 1666.430 1630.500 C 1666.380 1642.900, 1666.070 1645.414, 1663.712 1652.500 C 1648.506 1698.212, 1591.027 1722.984, 1505.500 1720.686 C 1422.413 1718.453, 1344.910 1690.168, 1277.510 1637.482 L 1268 1630.048 1268 1730.094 L 1268 1830.139 1278.250 1834.944 C 1343.152 1865.364, 1438.567 1881.816, 1537.500 1879.645 C 1584.678 1878.609, 1620.105 1874.703, 1661.064 1866.021 C 1736.700 1849.988, 1796.423 1815.215, 1833.706 1765.500 C 1842.306 1754.033, 1852.735 1736.918, 1857.777 1726 C 1881.003 1675.700, 1886.623 1603.046, 1871.938 1542.911 C 1857.066 1482.007, 1814.143 1429.378, 1745.671 1388.092 C 1717.561 1371.143, 1686.771 1355.908, 1642.163 1336.879 C 1561.579 1302.503, 1526.272 1282.669, 1502.339 1258.334 C 1484.750 1240.451, 1477.035 1223.273, 1477.035 1202 C 1477.035 1191.037, 1479.118 1181.389, 1483.460 1172.248 C 1498.454 1140.673, 1535.677 1120.291, 1592 1112.816 C 1604.405 1111.169, 1650.062 1111.172, 1665 1112.821 C 1727.501 1119.717, 1785.744 1138.731, 1830.354 1166.800 C 1835.774 1170.210, 1840.386 1173, 1840.604 1173 C 1840.822 1173, 1841 1131.134, 1841 1079.964 L 1841 986.929 1836.531 985.013 C 1828.080 981.391, 1803.656 973.953, 1785.592 969.501 C 1755.528 962.091, 1719.922 956.785, 1681.500 953.989 C 1661.601 952.541, 1595.996 951.923, 1579 953.024 M 472 1053.996 L 472 1135.992 599.750 1136.246 L 727.500 1136.500 727.751 1502.250 L 728.003 1868 829.501 1868 L 931 1868 931 1502 L 931 1136 1059.500 1136 L 1188 1136 1188 1054 L 1188 972 830 972 L 472 972 472 1053.996" stroke="none" fill="#fbfbfb" fill-rule="evenodd"/><path d="M 175.042 1.086 C 147.087 4.714, 117.893 15.121, 93.861 30.026 C 68.933 45.487, 45.487 68.933, 30.026 93.861 C 14.830 118.362, 4.588 147.385, 1.049 175.974 C -0.424 187.870, -0.424 1860.130, 1.049 1872.026 C 7.462 1923.828, 33.815 1971.398, 74 2003.708 C 100.809 2025.263, 127.747 2037.584, 166 2045.789 C 172.851 2047.258, 246.552 2047.427, 1017.500 2047.742 C 1617.486 2047.987, 1864.247 2047.774, 1871 2047.006 C 1899.342 2043.784, 1929.452 2033.313, 1953.720 2018.241 C 1979.294 2002.357, 2002.357 1979.294, 2018.241 1953.720 C 2032.718 1930.411, 2044.325 1897.711, 2046.639 1873.718 C 2046.999 1869.989, 2047.677 1866.700, 2048.147 1866.409 C 2048.617 1866.119, 2049 1487.314, 2049 1022.882 C 2049 553.375, 2048.619 180.117, 2048.141 180.413 C 2047.669 180.705, 2046.990 177.919, 2046.634 174.222 C 2044.293 149.960, 2032.903 117.931, 2018.164 94.168 C 2002.504 68.918, 1979.194 45.566, 1954.139 30.026 C 1932.572 16.650, 1911.142 8.358, 1882.429 2.281 C 1875.046 0.718, 1816.196 0.590, 1028 0.425 C 562.425 0.328, 178.594 0.625, 175.042 1.086 M 0.498 1024 C 0.498 1487.925, 0.611 1677.713, 0.750 1445.750 C 0.889 1213.788, 0.889 834.213, 0.750 602.250 C 0.611 370.288, 0.498 560.075, 0.498 1024 M 1579 953.024 C 1543.074 955.351, 1508.542 960.588, 1476.899 968.508 C 1387.081 990.989, 1320.670 1039.719, 1287.513 1107.472 C 1277.060 1128.831, 1271.086 1148.666, 1266.873 1176 C 1263.879 1195.426, 1263.605 1236.926, 1266.348 1255.500 C 1276.001 1320.871, 1304.898 1370.168, 1359 1413.561 C 1370.380 1422.689, 1395.345 1439.436, 1410.358 1448.015 C 1427.601 1457.868, 1457.242 1471.918, 1487 1484.344 C 1574.303 1520.799, 1609.724 1540.098, 1635.822 1565.431 C 1647.943 1577.196, 1654.606 1585.842, 1659.442 1596.080 C 1665.204 1608.279, 1666.493 1614.629, 1666.430 1630.500 C 1666.380 1642.900, 1666.070 1645.414, 1663.712 1652.500 C 1648.506 1698.212, 1591.027 1722.984, 1505.500 1720.686 C 1422.413 1718.453, 1344.910 1690.168, 1277.510 1637.482 L 1268 1630.048 1268 1730.094 L 1268 1830.139 1278.250 1834.944 C 1343.152 1865.364, 1438.567 1881.816, 1537.500 1879.645 C 1584.678 1878.609, 1620.105 1874.703, 1661.064 1866.021 C 1736.700 1849.988, 1796.423 1815.215, 1833.706 1765.500 C 1842.306 1754.033, 1852.735 1736.918, 1857.777 1726 C 1881.003 1675.700, 1886.623 1603.046, 1871.938 1542.911 C 1857.066 1482.007, 1814.143 1429.378, 1745.671 1388.092 C 1717.561 1371.143, 1686.771 1355.908, 1642.163 1336.879 C 1561.579 1302.503, 1526.272 1282.669, 1502.339 1258.334 C 1484.750 1240.451, 1477.035 1223.273, 1477.035 1202 C 1477.035 1191.037, 1479.118 1181.389, 1483.460 1172.248 C 1498.454 1140.673, 1535.677 1120.291, 1592 1112.816 C 1604.405 1111.169, 1650.062 1111.172, 1665 1112.821 C 1727.501 1119.717, 1785.744 1138.731, 1830.354 1166.800 C 1835.774 1170.210, 1840.386 1173, 1840.604 1173 C 1840.822 1173, 1841 1131.134, 1841 1079.964 L 1841 986.929 1836.531 985.013 C 1828.080 981.391, 1803.656 973.953, 1785.592 969.501 C 1755.528 962.091, 1719.922 956.785, 1681.500 953.989 C 1661.601 952.541, 1595.996 951.923, 1579 953.024 M 472 1053.996 L 472 1135.992 599.750 1136.246 L 727.500 1136.500 727.751 1502.250 L 728.003 1868 829.501 1868 L 931 1868 931 1502 L 931 1136 1059.500 1136 L 1188 1136 1188 1054 L 1188 972 830 972 L 472 972 472 1053.996" stroke="none" fill="#2c7cc4" fill-rule="evenodd"/></svg>